# xmcd CD database file
#
# Track frame offsets:
#	150
#	12455
#	24050
#	35542
#	49795
#	62070
#	76015
#	88485
#	100170
#	111807
#	123492
#	133750
#	144610
#	157205
#	170327
#	185255
#	197062
#	207942
#
# Disc length: 2973 seconds
#
# Revision: 0
# Processed by: cddbd v1.4PL0 Copyright (c) Steve Scherf et al.
# Submitted via: CDex 1.40Beta8
#
DISCID=f80b9b12
DTITLE=Muddy Waters - Whiskey Blues
DYEAR=1900
DGENRE=Blues
TTITLE0=Can't be satisfied
TTITLE1=Gipsy Woman
TTITLE2=Little Anna Mae
TTITLE3=I feel like going home
TTITLE4=Good looking woman
TTITLE5=I be's troubled
TTITLE6=Hard day's blues
TTITLE7=Mean disposition
TTITLE8=Sittin' here and drinkin'
TTITLE9=You're gonna miss me
TTITLE10=Mean red spider
TTITLE11=Muddy jumps one
TTITLE12=Train fare home blues
TTITLE13=Down south blues
TTITLE14=Stremline woman
TTITLE15=Kind hearted woman
TTITLE16=Stand here tremblin'
TTITLE17=32-20 Blues
EXTD=ID3G: 0
EXTT0=
EXTT1=
EXTT2=
EXTT3=
EXTT4=
EXTT5=
EXTT6=
EXTT7=
EXTT8=
EXTT9=
EXTT10=
EXTT11=
EXTT12=
EXTT13=
EXTT14=
EXTT15=
EXTT16=
EXTT17=
PLAYORDER=
